# xmcd
#
# Track frame offsets: 
#        150
#        19280
#        32225
#        43350
#        55605
#        67560
#        79462
#        91042
#        103692
#        117162
#        128337
#        140485
#        153385
#        165922
#        179027
#        193677
#
# Disc length: 2745 seconds
#
# Revision: 0
# Processed by: cddbd v1.5.2PL0 Copyright (c) Steve Scherf et al.
# Submitted via: ExactAudioCopy v1.0b3
#
DISCID=ce0ab710
DTITLE=Various Artist - Soul Music Best Selection Disc 2
DYEAR=1900
DGENRE=R&B
TTITLE0=Ray Charles - I Can't Stop Loving You
TTITLE1=Percy Sledge - When A Man Loves A Woman
TTITLE2=Aretha Franklin - Respect
TTITLE3=Otis Redding - The Dock Of The Bay
TTITLE4=Stevie Wonder - I Was Made To Love Her
TTITLE5=Sam and Dave - Soul Man
TTITLE6=Diana Ross and The Supremes - Where Did Our Love Go
TTITLE7=Gladys Knight and The Pips - I Heard It Through The Grapevine
TTITLE8=The Miracles - You Really Got A Hold On Me
TTITLE9=Wilson Picket - In The Midnight Hour
TTITLE10=Sam Cooke - Twist The Night A Way
TTITLE11=Ray Charles - Unchain My Heart
TTITLE12=Matha and The Vandellas - Heat Wave
TTITLE13=Diana Ross and The Supremes - Stop In The Name Of Love
TTITLE14=Otis Redding - I've Been Loving You Too Long
TTITLE15=James Brown - It's A Man's Man's World
EXTD=
EXTT0=
EXTT1=
EXTT2=
EXTT3=
EXTT4=
EXTT5=
EXTT6=
EXTT7=
EXTT8=
EXTT9=
EXTT10=
EXTT11=
EXTT12=
EXTT13=
EXTT14=
EXTT15=
PLAYORDER=
